<svg width="32" height="32" viewBox="0 0 200 200" fill="none" xmlns="http://www.w3.org/2000/svg">
  <rect width="200" height="200" rx="44" fill="#001192"/>
  <path d="M 50 150 Q 70 120, 90 130 Q 110 140, 120 110 L 130 110 Q 120 145, 105 150 Q 90 155, 80 145 Q 70 135, 60 150 L 50 150 Z" fill="#FFFFFF"/>
  <path d="M 80 50 Q 100 70, 110 60 L 120 70 Q 130 80, 145 65 L 150 70 Q 130 95, 115 90 Q 100 85, 95 95 Q 85 105, 75 90 L 80 50 Z" fill="#FFFFFF"/>
  <path d="M 130 75 L 145 120 Q 150 140, 135 150 L 125 145 Q 135 135, 132 120 L 120 80 L 130 75 Z" fill="#FFFFFF"/>
</svg>
